<mxfile host="Electron" agent="Mozilla/5.0 (Windows NT 10.0; Win64; x64) AppleWebKit/537.36 (KHTML, like Gecko) draw.io/26.0.16 Chrome/132.0.6834.196 Electron/34.2.0 Safari/537.36" version="26.0.16">
  <diagram name="Page-1" id="LFGb-Bz6WokvGtFSf8B8">
    <mxGraphModel dx="1165" dy="656" grid="1" gridSize="10" guides="1" tooltips="1" connect="1" arrows="1" fold="1" page="1" pageScale="1" pageWidth="1600" pageHeight="1200" math="0" shadow="0">
      <root>
        <mxCell id="0" />
        <mxCell id="1" parent="0" />
        <mxCell id="N0iufMa6y9RavnVxZ0Gz-1" value="" style="rounded=0;whiteSpace=wrap;html=1;dashed=1;fillColor=none;" parent="1" vertex="1">
          <mxGeometry x="120" y="280" width="200" height="480" as="geometry" />
        </mxCell>
        <mxCell id="N0iufMa6y9RavnVxZ0Gz-6" value="&lt;font style=&quot;font-size: 20px;&quot;&gt;&lt;b&gt;Sources&lt;/b&gt;&lt;/font&gt;" style="rounded=0;whiteSpace=wrap;html=1;fillColor=default;strokeColor=none;" parent="1" vertex="1">
          <mxGeometry x="150" y="261" width="140" height="40" as="geometry" />
        </mxCell>
        <mxCell id="N0iufMa6y9RavnVxZ0Gz-17" value="" style="rounded=0;whiteSpace=wrap;html=1;fillColor=none;strokeWidth=2;strokeColor=#d79b00;" parent="1" vertex="1">
          <mxGeometry x="400" y="340" width="200" height="400" as="geometry" />
        </mxCell>
        <mxCell id="N0iufMa6y9RavnVxZ0Gz-18" value="&lt;font style=&quot;font-size: 18px;&quot;&gt;&lt;b style=&quot;&quot;&gt;Bronze Layer&lt;/b&gt;&lt;/font&gt;" style="rounded=0;whiteSpace=wrap;html=1;fillColor=#ffe6cc;strokeColor=#d79b00;strokeWidth=2;" parent="1" vertex="1">
          <mxGeometry x="400" y="311" width="200" height="30" as="geometry" />
        </mxCell>
        <mxCell id="N0iufMa6y9RavnVxZ0Gz-19" value="" style="rounded=0;whiteSpace=wrap;html=1;fillColor=none;strokeWidth=2;fontColor=#333333;strokeColor=#666666;" parent="1" vertex="1">
          <mxGeometry x="640" y="341" width="200" height="399" as="geometry" />
        </mxCell>
        <mxCell id="N0iufMa6y9RavnVxZ0Gz-20" value="&lt;font style=&quot;font-size: 18px;&quot;&gt;&lt;b style=&quot;&quot;&gt;Silver Layer&lt;/b&gt;&lt;/font&gt;" style="rounded=0;whiteSpace=wrap;html=1;fillColor=#f5f5f5;fontColor=#333333;strokeColor=#666666;strokeWidth=2;" parent="1" vertex="1">
          <mxGeometry x="640" y="311" width="200" height="30" as="geometry" />
        </mxCell>
        <mxCell id="N0iufMa6y9RavnVxZ0Gz-21" value="" style="rounded=0;whiteSpace=wrap;html=1;fillColor=none;strokeColor=#d6b656;strokeWidth=2;" parent="1" vertex="1">
          <mxGeometry x="880" y="340" width="200" height="400" as="geometry" />
        </mxCell>
        <mxCell id="N0iufMa6y9RavnVxZ0Gz-22" value="&lt;font style=&quot;font-size: 18px;&quot;&gt;&lt;b style=&quot;&quot;&gt;Gold Layer&lt;/b&gt;&lt;/font&gt;" style="rounded=0;whiteSpace=wrap;html=1;fillColor=#fff2cc;strokeColor=#d6b656;strokeWidth=2;" parent="1" vertex="1">
          <mxGeometry x="880" y="311" width="200" height="30" as="geometry" />
        </mxCell>
        <mxCell id="TGWx9lwykgIyTP0sSRGu-14" style="edgeStyle=orthogonalEdgeStyle;rounded=0;orthogonalLoop=1;jettySize=auto;html=1;" edge="1" parent="1" source="N0iufMa6y9RavnVxZ0Gz-23" target="TGWx9lwykgIyTP0sSRGu-2">
          <mxGeometry relative="1" as="geometry" />
        </mxCell>
        <mxCell id="TGWx9lwykgIyTP0sSRGu-15" style="edgeStyle=orthogonalEdgeStyle;rounded=0;orthogonalLoop=1;jettySize=auto;html=1;entryX=0;entryY=0.5;entryDx=0;entryDy=0;" edge="1" parent="1" source="N0iufMa6y9RavnVxZ0Gz-23" target="TGWx9lwykgIyTP0sSRGu-1">
          <mxGeometry relative="1" as="geometry">
            <Array as="points">
              <mxPoint x="360" y="434" />
              <mxPoint x="360" y="375" />
            </Array>
          </mxGeometry>
        </mxCell>
        <mxCell id="TGWx9lwykgIyTP0sSRGu-16" style="edgeStyle=orthogonalEdgeStyle;rounded=0;orthogonalLoop=1;jettySize=auto;html=1;entryX=0;entryY=0.5;entryDx=0;entryDy=0;" edge="1" parent="1" source="N0iufMa6y9RavnVxZ0Gz-23" target="TGWx9lwykgIyTP0sSRGu-4">
          <mxGeometry relative="1" as="geometry">
            <Array as="points">
              <mxPoint x="360" y="434" />
              <mxPoint x="360" y="495" />
            </Array>
          </mxGeometry>
        </mxCell>
        <mxCell id="N0iufMa6y9RavnVxZ0Gz-23" value="&lt;b&gt;CRM&lt;/b&gt;" style="image;aspect=fixed;html=1;points=[];align=center;fontSize=12;image=img/lib/azure2/general/Folder_Blank.svg;" parent="1" vertex="1">
          <mxGeometry x="190" y="410" width="60" height="48.69" as="geometry" />
        </mxCell>
        <mxCell id="N0iufMa6y9RavnVxZ0Gz-43" value="" style="image;aspect=fixed;html=1;points=[];align=center;fontSize=12;image=img/lib/azure2/general/File.svg;" parent="1" vertex="1">
          <mxGeometry x="230" y="430" width="27.9" height="34.36" as="geometry" />
        </mxCell>
        <mxCell id="TGWx9lwykgIyTP0sSRGu-7" value="" style="edgeStyle=orthogonalEdgeStyle;rounded=0;orthogonalLoop=1;jettySize=auto;html=1;entryX=0;entryY=0.5;entryDx=0;entryDy=0;" edge="1" parent="1" source="N0iufMa6y9RavnVxZ0Gz-77" target="TGWx9lwykgIyTP0sSRGu-5">
          <mxGeometry relative="1" as="geometry">
            <Array as="points" />
          </mxGeometry>
        </mxCell>
        <mxCell id="TGWx9lwykgIyTP0sSRGu-11" style="edgeStyle=orthogonalEdgeStyle;rounded=0;orthogonalLoop=1;jettySize=auto;html=1;entryX=0;entryY=0.5;entryDx=0;entryDy=0;" edge="1" parent="1" source="N0iufMa6y9RavnVxZ0Gz-77" target="TGWx9lwykgIyTP0sSRGu-3">
          <mxGeometry relative="1" as="geometry">
            <Array as="points">
              <mxPoint x="360" y="640" />
              <mxPoint x="360" y="585" />
            </Array>
          </mxGeometry>
        </mxCell>
        <mxCell id="TGWx9lwykgIyTP0sSRGu-13" style="edgeStyle=orthogonalEdgeStyle;rounded=0;orthogonalLoop=1;jettySize=auto;html=1;entryX=0;entryY=0.5;entryDx=0;entryDy=0;" edge="1" parent="1" source="N0iufMa6y9RavnVxZ0Gz-77" target="TGWx9lwykgIyTP0sSRGu-6">
          <mxGeometry relative="1" as="geometry">
            <Array as="points">
              <mxPoint x="360" y="640" />
              <mxPoint x="360" y="695" />
            </Array>
          </mxGeometry>
        </mxCell>
        <mxCell id="N0iufMa6y9RavnVxZ0Gz-77" value="&lt;b&gt;ERP&lt;/b&gt;" style="image;aspect=fixed;html=1;points=[];align=center;fontSize=12;image=img/lib/azure2/general/Folder_Blank.svg;" parent="1" vertex="1">
          <mxGeometry x="188.39" y="615" width="61.61" height="50" as="geometry" />
        </mxCell>
        <mxCell id="N0iufMa6y9RavnVxZ0Gz-78" value="" style="image;aspect=fixed;html=1;points=[];align=center;fontSize=12;image=img/lib/azure2/general/File.svg;" parent="1" vertex="1">
          <mxGeometry x="230" y="640" width="27.9" height="34.36" as="geometry" />
        </mxCell>
        <mxCell id="N0iufMa6y9RavnVxZ0Gz-92" value="" style="endArrow=classic;html=1;rounded=0;strokeColor=#6c8ebf;align=center;verticalAlign=middle;fontFamily=Helvetica;fontSize=11;fontColor=default;labelBackgroundColor=default;fillColor=#dae8fc;dashed=1;" parent="1" edge="1">
          <mxGeometry width="50" height="50" relative="1" as="geometry">
            <mxPoint x="739.33" y="418.69000000000005" as="sourcePoint" />
            <mxPoint x="739.3299999999999" y="418.68999999999994" as="targetPoint" />
          </mxGeometry>
        </mxCell>
        <mxCell id="TGWx9lwykgIyTP0sSRGu-1" value="crm_cust_info" style="rounded=1;whiteSpace=wrap;html=1;fillColor=#ffe6cc;strokeColor=#d79b00;" vertex="1" parent="1">
          <mxGeometry x="440" y="360" width="120" height="30" as="geometry" />
        </mxCell>
        <mxCell id="TGWx9lwykgIyTP0sSRGu-2" value="crm_cust_info" style="rounded=1;whiteSpace=wrap;html=1;fillColor=#ffe6cc;strokeColor=#d79b00;" vertex="1" parent="1">
          <mxGeometry x="440" y="419.35" width="120" height="30" as="geometry" />
        </mxCell>
        <mxCell id="TGWx9lwykgIyTP0sSRGu-3" value="crm_cust_info" style="rounded=1;whiteSpace=wrap;html=1;fillColor=#ffe6cc;strokeColor=#d79b00;" vertex="1" parent="1">
          <mxGeometry x="440" y="570" width="120" height="30" as="geometry" />
        </mxCell>
        <mxCell id="TGWx9lwykgIyTP0sSRGu-4" value="crm_cust_info" style="rounded=1;whiteSpace=wrap;html=1;fillColor=#ffe6cc;strokeColor=#d79b00;" vertex="1" parent="1">
          <mxGeometry x="440" y="480" width="120" height="30" as="geometry" />
        </mxCell>
        <mxCell id="TGWx9lwykgIyTP0sSRGu-5" value="crm_cust_info" style="rounded=1;whiteSpace=wrap;html=1;fillColor=#ffe6cc;strokeColor=#d79b00;" vertex="1" parent="1">
          <mxGeometry x="440" y="625" width="120" height="30" as="geometry" />
        </mxCell>
        <mxCell id="TGWx9lwykgIyTP0sSRGu-6" value="crm_cust_info" style="rounded=1;whiteSpace=wrap;html=1;fillColor=#ffe6cc;strokeColor=#d79b00;" vertex="1" parent="1">
          <mxGeometry x="440" y="680" width="120" height="30" as="geometry" />
        </mxCell>
        <mxCell id="TGWx9lwykgIyTP0sSRGu-19" value="&lt;font style=&quot;font-size: 25px;&quot;&gt;&lt;b style=&quot;&quot;&gt;Data Flow&lt;/b&gt;&lt;/font&gt;" style="rounded=1;whiteSpace=wrap;html=1;fillColor=none;strokeColor=none;" vertex="1" parent="1">
          <mxGeometry x="500" y="190" width="240" height="60" as="geometry" />
        </mxCell>
        <mxCell id="TGWx9lwykgIyTP0sSRGu-20" value="(Data Lineage)" style="text;html=1;align=center;verticalAlign=middle;resizable=0;points=[];autosize=1;strokeColor=none;fillColor=none;" vertex="1" parent="1">
          <mxGeometry x="665" y="220" width="100" height="30" as="geometry" />
        </mxCell>
      </root>
    </mxGraphModel>
  </diagram>
</mxfile>
